<svg width="140" height="43" viewBox="0 0 140 43" fill="none" xmlns="http://www.w3.org/2000/svg">
<path d="M8.81 29.24C6.15 29.24 4.02 28.74 2.42 27.74C0.82 26.72 0.0200001 25.17 0.0200001 23.09C0.0200001 21.99 0.21 21.15 0.59 20.57C0.97 19.99 1.53 19.7 2.27 19.7C2.81 19.7 3.25 19.84 3.59 20.12C3.93 20.4 4.1 20.76 4.1 21.2C4.1 21.6 4.07 21.95 4.01 22.25C4.01 22.33 3.99 22.47 3.95 22.67C3.93 22.87 3.92 23.08 3.92 23.3C3.92 24.2 4.37 24.87 5.27 25.31C6.19 25.75 7.47 25.97 9.11 25.97C10.81 25.97 12.14 25.67 13.1 25.07C14.06 24.45 14.54 23.59 14.54 22.49C14.54 21.81 14.32 21.23 13.88 20.75C13.44 20.25 12.89 19.84 12.23 19.52C11.57 19.18 10.64 18.77 9.44 18.29C7.9 17.69 6.64 17.12 5.66 16.58C4.7 16.04 3.87 15.31 3.17 14.39C2.49 13.45 2.15 12.29 2.15 10.91C2.15 9.47 2.53 8.19 3.29 7.07C4.07 5.95 5.18 5.08 6.62 4.46C8.08 3.84 9.79 3.53 11.75 3.53C13.21 3.53 14.55 3.75 15.77 4.19C16.99 4.61 17.96 5.26 18.68 6.14C19.42 7.02 19.79 8.1 19.79 9.38C19.79 10.64 19.6 11.59 19.22 12.23C18.84 12.87 18.28 13.19 17.54 13.19C17.02 13.19 16.58 13.03 16.22 12.71C15.88 12.39 15.71 12.01 15.71 11.57C15.71 11.19 15.74 10.84 15.8 10.52C15.86 9.92 15.89 9.54 15.89 9.38C15.89 8.54 15.48 7.9 14.66 7.46C13.84 7.02 12.82 6.8 11.6 6.8C9.88 6.8 8.56 7.12 7.64 7.76C6.74 8.38 6.29 9.26 6.29 10.4C6.29 11.16 6.52 11.81 6.98 12.35C7.46 12.89 8.05 13.34 8.75 13.7C9.45 14.06 10.43 14.49 11.69 14.99C13.21 15.61 14.43 16.17 15.35 16.67C16.27 17.17 17.05 17.85 17.69 18.71C18.35 19.57 18.68 20.63 18.68 21.89C18.68 24.25 17.78 26.07 15.98 27.35C14.2 28.61 11.81 29.24 8.81 29.24ZM25.0243 13.04C24.1843 13.04 23.5543 12.85 23.1343 12.47C22.7143 12.07 22.5043 11.52 22.5043 10.82C22.5043 10.12 22.7743 9.54 23.3143 9.08C23.8743 8.6 24.5643 8.36 25.3843 8.36C26.1243 8.36 26.7243 8.54 27.1843 8.9C27.6443 9.26 27.8743 9.77 27.8743 10.43C27.8743 11.23 27.6143 11.87 27.0943 12.35C26.5743 12.81 25.8843 13.04 25.0243 13.04ZM24.7843 29.15C23.4843 29.15 22.5343 28.69 21.9343 27.77C21.3543 26.85 21.0643 25.63 21.0643 24.11C21.0643 23.21 21.1743 22.06 21.3943 20.66C21.6343 19.24 21.9343 17.92 22.2943 16.7C22.4743 16.06 22.7143 15.62 23.0143 15.38C23.3143 15.14 23.7943 15.02 24.4543 15.02C25.4743 15.02 25.9843 15.36 25.9843 16.04C25.9843 16.54 25.7943 17.7 25.4143 19.52C24.9343 21.72 24.6943 23.21 24.6943 23.99C24.6943 24.59 24.7743 25.05 24.9343 25.37C25.0943 25.69 25.3643 25.85 25.7443 25.85C26.1043 25.85 26.5543 25.6 27.0943 25.1C27.6343 24.6 28.3543 23.81 29.2543 22.73C29.4943 22.45 29.7643 22.31 30.0643 22.31C30.3243 22.31 30.5243 22.43 30.6643 22.67C30.8243 22.91 30.9043 23.24 30.9043 23.66C30.9043 24.46 30.7143 25.08 30.3343 25.52C28.3543 27.94 26.5043 29.15 24.7843 29.15ZM30.6071 29.15C29.8471 29.15 29.3071 28.75 28.9871 27.95C28.6871 27.15 28.5371 25.87 28.5371 24.11C28.5371 21.51 28.9071 19.04 29.6471 16.7C29.8271 16.12 30.1171 15.7 30.5171 15.44C30.9371 15.16 31.5171 15.02 32.2571 15.02C32.6571 15.02 32.9371 15.07 33.0971 15.17C33.2571 15.27 33.3371 15.46 33.3371 15.74C33.3371 16.06 33.1871 16.78 32.8871 17.9C32.6871 18.7 32.5271 19.4 32.4071 20C32.2871 20.6 32.1871 21.34 32.1071 22.22C32.7671 20.5 33.5071 19.1 34.3271 18.02C35.1471 16.94 35.9471 16.17 36.7271 15.71C37.5271 15.25 38.2571 15.02 38.9171 15.02C40.2171 15.02 40.8671 15.67 40.8671 16.97C40.8671 17.75 40.6471 19.16 40.2071 21.2C39.8271 22.94 39.6371 24.09 39.6371 24.65C39.6371 25.45 39.9271 25.85 40.5071 25.85C40.9071 25.85 41.3771 25.61 41.9171 25.13C42.4771 24.63 43.2171 23.83 44.1371 22.73C44.3771 22.45 44.6471 22.31 44.9471 22.31C45.2071 22.31 45.4071 22.43 45.5471 22.67C45.7071 22.91 45.7871 23.24 45.7871 23.66C45.7871 24.46 45.5971 25.08 45.2171 25.52C44.3571 26.58 43.4271 27.45 42.4271 28.13C41.4471 28.81 40.3271 29.15 39.0671 29.15C38.0471 29.15 37.2771 28.86 36.7571 28.28C36.2371 27.68 35.9771 26.82 35.9771 25.7C35.9771 25.14 36.1171 24.14 36.3971 22.7C36.6571 21.44 36.7871 20.57 36.7871 20.09C36.7871 19.77 36.6771 19.61 36.4571 19.61C36.1971 19.61 35.8271 19.95 35.3471 20.63C34.8871 21.29 34.4071 22.17 33.9071 23.27C33.4271 24.37 33.0371 25.53 32.7371 26.75C32.5171 27.69 32.2571 28.33 31.9571 28.67C31.6771 28.99 31.2271 29.15 30.6071 29.15ZM58.7199 22.37C58.9799 22.37 59.1799 22.5 59.3199 22.76C59.4799 23 59.5599 23.31 59.5599 23.69C59.5599 24.15 59.4899 24.51 59.3499 24.77C59.2099 25.03 58.9899 25.26 58.6899 25.46C56.9699 26.62 55.7099 27.48 54.9099 28.04L52.9899 29.33C52.2299 33.47 51.2299 36.72 49.9899 39.08C48.7699 41.46 47.2099 42.65 45.3099 42.65C44.2899 42.65 43.4599 42.33 42.8199 41.69C42.1799 41.07 41.8599 40.25 41.8599 39.23C41.8599 37.81 42.4199 36.28 43.5399 34.64C44.6599 33.02 46.7599 31.02 49.8399 28.64L50.0199 27.47C49.6799 28.01 49.2299 28.43 48.6699 28.73C48.1299 29.01 47.5899 29.15 47.0499 29.15C45.8099 29.15 44.8199 28.7 44.0799 27.8C43.3399 26.9 42.9699 25.72 42.9699 24.26C42.9699 22.66 43.3399 21.15 44.0799 19.73C44.8199 18.29 45.7999 17.14 47.0199 16.28C48.2599 15.4 49.5699 14.96 50.9499 14.96C51.3899 14.96 51.6799 15.05 51.8199 15.23C51.9799 15.39 52.1099 15.69 52.2099 16.13C52.5899 16.05 53.0299 16.01 53.5299 16.01C54.0299 16.01 54.3799 16.09 54.5799 16.25C54.7999 16.39 54.9099 16.68 54.9099 17.12C54.9099 17.36 54.8999 17.55 54.8799 17.69C54.7999 18.31 54.5499 19.88 54.1299 22.4C54.0499 22.88 53.9599 23.41 53.8599 23.99C53.7799 24.55 53.6899 25.15 53.5899 25.79C55.1299 24.59 56.6099 23.53 58.0299 22.61C58.2899 22.45 58.5199 22.37 58.7199 22.37ZM48.1299 26.12C48.5899 26.12 49.0299 25.84 49.4499 25.28C49.8699 24.72 50.1699 23.92 50.3499 22.88L51.3099 17.75C50.4899 17.77 49.7299 18.09 49.0299 18.71C48.3299 19.31 47.7699 20.11 47.3499 21.11C46.9299 22.11 46.7199 23.17 46.7199 24.29C46.7199 24.91 46.8399 25.37 47.0799 25.67C47.3399 25.97 47.6899 26.12 48.1299 26.12ZM45.6399 39.74C46.1399 39.74 46.6999 39.14 47.3199 37.94C47.9599 36.74 48.5699 34.83 49.1499 32.21C47.6099 33.53 46.4999 34.72 45.8199 35.78C45.1399 36.84 44.7999 37.77 44.7999 38.57C44.7999 38.91 44.8599 39.19 44.9799 39.41C45.1199 39.63 45.3399 39.74 45.6399 39.74ZM60.4531 29.15C59.5531 29.15 58.8131 28.74 58.2331 27.92C57.6731 27.08 57.3931 26.04 57.3931 24.8C57.3931 23.3 57.4931 21.93 57.6931 20.69C57.8931 19.43 58.2231 18.1 58.6831 16.7C58.8831 16.1 59.1631 15.67 59.5231 15.41C59.8831 15.15 60.4531 15.02 61.2331 15.02C61.6731 15.02 61.9731 15.09 62.1331 15.23C62.3131 15.37 62.4031 15.58 62.4031 15.86C62.4031 16.02 62.2931 16.56 62.0731 17.48C61.8731 18.22 61.7131 18.89 61.5931 19.49C61.1931 21.59 60.9931 22.99 60.9931 23.69C60.9931 24.11 61.0431 24.41 61.1431 24.59C61.2431 24.75 61.4031 24.83 61.6231 24.83C61.9231 24.83 62.2931 24.53 62.7331 23.93C63.1931 23.33 63.6731 22.42 64.1731 21.2C64.6931 19.98 65.1931 18.48 65.6731 16.7C65.8331 16.1 66.0731 15.67 66.3931 15.41C66.7331 15.15 67.2331 15.02 67.8931 15.02C68.3531 15.02 68.6731 15.08 68.8531 15.2C69.0331 15.3 69.1231 15.5 69.1231 15.8C69.1231 16.3 68.8731 17.67 68.3731 19.91C67.8131 22.47 67.5331 24.05 67.5331 24.65C67.5331 25.03 67.6131 25.33 67.7731 25.55C67.9331 25.75 68.1431 25.85 68.4031 25.85C68.8031 25.85 69.2731 25.61 69.8131 25.13C70.3731 24.63 71.1131 23.83 72.0331 22.73C72.2731 22.45 72.5431 22.31 72.8431 22.31C73.1031 22.31 73.3031 22.43 73.4431 22.67C73.6031 22.91 73.6831 23.24 73.6831 23.66C73.6831 24.46 73.4931 25.08 73.1131 25.52C72.2531 26.58 71.3231 27.45 70.3231 28.13C69.3431 28.81 68.2231 29.15 66.9631 29.15C66.0031 29.15 65.2931 28.78 64.8331 28.04C64.3931 27.3 64.1731 26.26 64.1731 24.92C63.8331 26.28 63.3231 27.33 62.6431 28.07C61.9631 28.79 61.2331 29.15 60.4531 29.15ZM82.6205 22.31C82.8805 22.31 83.0805 22.43 83.2205 22.67C83.3805 22.91 83.4605 23.24 83.4605 23.66C83.4605 24.46 83.2705 25.08 82.8905 25.52C82.0305 26.58 81.0905 27.45 80.0705 28.13C79.0705 28.81 77.9305 29.15 76.6505 29.15C74.8905 29.15 73.5805 28.35 72.7205 26.75C71.8805 25.15 71.4605 23.08 71.4605 20.54C71.4605 18.1 71.7705 15.32 72.3905 12.2C73.0305 9.08 73.9605 6.4 75.1805 4.16C76.4205 1.92 77.8905 0.799998 79.5905 0.799998C80.5505 0.799998 81.3005 1.25 81.8405 2.15C82.4005 3.03 82.6805 4.3 82.6805 5.96C82.6805 8.34 82.0205 11.1 80.7005 14.24C79.3805 17.38 77.5905 20.49 75.3305 23.57C75.4705 24.39 75.7005 24.98 76.0205 25.34C76.3405 25.68 76.7605 25.85 77.2805 25.85C78.1005 25.85 78.8205 25.62 79.4405 25.16C80.0605 24.68 80.8505 23.87 81.8105 22.73C82.0505 22.45 82.3205 22.31 82.6205 22.31ZM78.9305 3.77C78.4705 3.77 77.9505 4.6 77.3705 6.26C76.7905 7.92 76.2805 9.98 75.8405 12.44C75.4005 14.9 75.1605 17.26 75.1205 19.52C76.5405 17.18 77.6705 14.84 78.5105 12.5C79.3505 10.14 79.7705 7.99 79.7705 6.05C79.7705 4.53 79.4905 3.77 78.9305 3.77ZM84.4327 29.15C83.1927 29.15 82.2027 28.7 81.4627 27.8C80.7227 26.9 80.3527 25.72 80.3527 24.26C80.3527 22.66 80.7227 21.15 81.4627 19.73C82.2027 18.29 83.1827 17.14 84.4027 16.28C85.6427 15.4 86.9527 14.96 88.3327 14.96C88.7727 14.96 89.0627 15.05 89.2027 15.23C89.3627 15.39 89.4927 15.69 89.5927 16.13C90.0127 16.05 90.4527 16.01 90.9127 16.01C91.8927 16.01 92.3827 16.36 92.3827 17.06C92.3827 17.48 92.2327 18.48 91.9327 20.06C91.4727 22.36 91.2427 23.96 91.2427 24.86C91.2427 25.16 91.3127 25.4 91.4527 25.58C91.6127 25.76 91.8127 25.85 92.0527 25.85C92.4327 25.85 92.8927 25.61 93.4327 25.13C93.9727 24.63 94.7027 23.83 95.6227 22.73C95.8627 22.45 96.1327 22.31 96.4327 22.31C96.6927 22.31 96.8927 22.43 97.0327 22.67C97.1927 22.91 97.2727 23.24 97.2727 23.66C97.2727 24.46 97.0827 25.08 96.7027 25.52C95.8827 26.54 95.0127 27.4 94.0927 28.1C93.1727 28.8 92.2827 29.15 91.4227 29.15C90.7627 29.15 90.1527 28.93 89.5927 28.49C89.0527 28.03 88.6427 27.41 88.3627 26.63C87.3227 28.31 86.0127 29.15 84.4327 29.15ZM85.5127 26.12C85.9527 26.12 86.3727 25.86 86.7727 25.34C87.1727 24.82 87.4627 24.13 87.6427 23.27L88.7527 17.75C87.9127 17.77 87.1327 18.09 86.4127 18.71C85.7127 19.31 85.1527 20.11 84.7327 21.11C84.3127 22.11 84.1027 23.17 84.1027 24.29C84.1027 24.91 84.2227 25.37 84.4627 25.67C84.7227 25.97 85.0727 26.12 85.5127 26.12ZM96.9645 29.15C96.2045 29.15 95.6645 28.75 95.3445 27.95C95.0445 27.15 94.8945 25.87 94.8945 24.11C94.8945 21.51 95.2645 19.04 96.0045 16.7C96.1845 16.12 96.4745 15.7 96.8745 15.44C97.2945 15.16 97.8745 15.02 98.6145 15.02C99.0145 15.02 99.2945 15.07 99.4545 15.17C99.6145 15.27 99.6945 15.46 99.6945 15.74C99.6945 16.06 99.5445 16.78 99.2445 17.9C99.0445 18.7 98.8845 19.4 98.7645 20C98.6445 20.6 98.5445 21.34 98.4645 22.22C99.1245 20.5 99.8645 19.1 100.685 18.02C101.505 16.94 102.305 16.17 103.085 15.71C103.885 15.25 104.615 15.02 105.275 15.02C106.575 15.02 107.225 15.67 107.225 16.97C107.225 17.23 107.135 17.86 106.955 18.86C106.795 19.66 106.715 20.16 106.715 20.36C106.715 21.06 106.965 21.41 107.465 21.41C108.025 21.41 108.745 20.97 109.625 20.09C109.885 19.83 110.155 19.7 110.435 19.7C110.695 19.7 110.895 19.82 111.035 20.06C111.195 20.28 111.275 20.58 111.275 20.96C111.275 21.7 111.075 22.28 110.675 22.7C110.115 23.28 109.455 23.78 108.695 24.2C107.955 24.6 107.165 24.8 106.325 24.8C105.265 24.8 104.455 24.53 103.895 23.99C103.355 23.45 103.085 22.72 103.085 21.8C103.085 21.5 103.115 21.2 103.175 20.9C103.215 20.5 103.235 20.23 103.235 20.09C103.235 19.77 103.125 19.61 102.905 19.61C102.605 19.61 102.205 19.95 101.705 20.63C101.225 21.29 100.745 22.17 100.265 23.27C99.7845 24.37 99.3945 25.53 99.0945 26.75C98.8745 27.69 98.6145 28.33 98.3145 28.67C98.0345 28.99 97.5845 29.15 96.9645 29.15ZM112.417 13.04C111.577 13.04 110.947 12.85 110.527 12.47C110.107 12.07 109.897 11.52 109.897 10.82C109.897 10.12 110.167 9.54 110.707 9.08C111.267 8.6 111.957 8.36 112.777 8.36C113.517 8.36 114.117 8.54 114.577 8.9C115.037 9.26 115.267 9.77 115.267 10.43C115.267 11.23 115.007 11.87 114.487 12.35C113.967 12.81 113.277 13.04 112.417 13.04ZM112.177 29.15C110.877 29.15 109.927 28.69 109.327 27.77C108.747 26.85 108.457 25.63 108.457 24.11C108.457 23.21 108.567 22.06 108.787 20.66C109.027 19.24 109.327 17.92 109.687 16.7C109.867 16.06 110.107 15.62 110.407 15.38C110.707 15.14 111.187 15.02 111.847 15.02C112.867 15.02 113.377 15.36 113.377 16.04C113.377 16.54 113.187 17.7 112.807 19.52C112.327 21.72 112.087 23.21 112.087 23.99C112.087 24.59 112.167 25.05 112.327 25.37C112.487 25.69 112.757 25.85 113.137 25.85C113.497 25.85 113.947 25.6 114.487 25.1C115.027 24.6 115.747 23.81 116.647 22.73C116.887 22.45 117.157 22.31 117.457 22.31C117.717 22.31 117.917 22.43 118.057 22.67C118.217 22.91 118.297 23.24 118.297 23.66C118.297 24.46 118.107 25.08 117.727 25.52C115.747 27.94 113.897 29.15 112.177 29.15ZM129.25 22.31C129.51 22.31 129.71 22.43 129.85 22.67C130.01 22.91 130.09 23.24 130.09 23.66C130.09 24.46 129.9 25.08 129.52 25.52C128.66 26.58 127.72 27.45 126.7 28.13C125.68 28.81 124.51 29.15 123.19 29.15C119.11 29.15 117.07 26.28 117.07 20.54C117.07 19.66 117.1 18.77 117.16 17.87H115.99C115.39 17.87 114.98 17.76 114.76 17.54C114.56 17.32 114.46 16.97 114.46 16.49C114.46 15.37 114.91 14.81 115.81 14.81H117.52C117.86 12.61 118.38 10.6 119.08 8.78C119.78 6.96 120.62 5.51 121.6 4.43C122.6 3.35 123.67 2.81 124.81 2.81C125.65 2.81 126.31 3.18 126.79 3.92C127.27 4.66 127.51 5.59 127.51 6.71C127.51 9.81 126.21 12.51 123.61 14.81H126.97C127.29 14.81 127.52 14.88 127.66 15.02C127.8 15.16 127.87 15.42 127.87 15.8C127.87 17.18 126.74 17.87 124.48 17.87H120.82C120.78 18.87 120.76 19.65 120.76 20.21C120.76 22.29 121 23.75 121.48 24.59C121.98 25.43 122.76 25.85 123.82 25.85C124.68 25.85 125.44 25.59 126.1 25.07C126.76 24.55 127.54 23.77 128.44 22.73C128.68 22.45 128.95 22.31 129.25 22.31ZM124 5.69C123.7 5.69 123.36 6.07 122.98 6.83C122.62 7.57 122.27 8.61 121.93 9.95C121.61 11.27 121.34 12.74 121.12 14.36C122.3 13.34 123.18 12.2 123.76 10.94C124.36 9.66 124.66 8.5 124.66 7.46C124.66 6.28 124.44 5.69 124 5.69ZM138.147 15.02C138.607 15.02 138.927 15.08 139.107 15.2C139.287 15.32 139.377 15.52 139.377 15.8C139.377 16.28 139.117 17.99 138.597 20.93C138.137 23.75 137.867 25.42 137.787 25.94C137.047 31.08 136.027 35.15 134.727 38.15C133.427 41.15 131.697 42.65 129.537 42.65C128.517 42.65 127.687 42.33 127.047 41.69C126.407 41.07 126.087 40.25 126.087 39.23C126.087 38.29 126.297 37.33 126.717 36.35C127.157 35.37 127.957 34.24 129.117 32.96C130.297 31.7 131.957 30.25 134.097 28.61L134.187 27.92C134.327 27.18 134.487 26.12 134.667 24.74C134.267 26.18 133.707 27.28 132.987 28.04C132.267 28.78 131.507 29.15 130.707 29.15C129.807 29.15 129.067 28.74 128.487 27.92C127.927 27.08 127.647 26.04 127.647 24.8C127.647 23.3 127.747 21.93 127.947 20.69C128.147 19.43 128.477 18.1 128.937 16.7C129.137 16.1 129.417 15.67 129.777 15.41C130.137 15.15 130.707 15.02 131.487 15.02C131.927 15.02 132.227 15.09 132.387 15.23C132.567 15.37 132.657 15.58 132.657 15.86C132.657 16.02 132.547 16.56 132.327 17.48C132.127 18.22 131.967 18.89 131.847 19.49C131.687 20.31 131.547 21.1 131.427 21.86C131.307 22.6 131.247 23.21 131.247 23.69C131.247 24.45 131.457 24.83 131.877 24.83C132.177 24.83 132.547 24.53 132.987 23.93C133.447 23.33 133.927 22.42 134.427 21.2C134.947 19.98 135.447 18.48 135.927 16.7C136.087 16.1 136.327 15.67 136.647 15.41C136.987 15.15 137.487 15.02 138.147 15.02ZM129.867 39.74C130.367 39.74 130.927 39.16 131.547 38C132.167 36.84 132.787 34.91 133.407 32.21C131.867 33.51 130.747 34.69 130.047 35.75C129.367 36.83 129.027 37.77 129.027 38.57C129.027 38.91 129.087 39.19 129.207 39.41C129.347 39.63 129.567 39.74 129.867 39.74Z" fill="#4B0085"/>
</svg>
